<mxfile host="app.diagrams.net" modified="2024-03-25T07:36:49.418Z" agent="Mozilla/5.0 (Windows NT 10.0; Win64; x64; rv:122.0) Gecko/20100101 Firefox/122.0" etag="M9WH-DD818dh69hURXeG" version="24.1.0" type="github">
  <diagram name="Sivu-1" id="Xkt8anIaoulDjf0OGHD6">
    <mxGraphModel dx="934" dy="464" grid="1" gridSize="10" guides="1" tooltips="1" connect="1" arrows="1" fold="1" page="1" pageScale="1" pageWidth="1100" pageHeight="850" math="0" shadow="0">
      <root>
        <mxCell id="0" />
        <mxCell id="1" parent="0" />
        <mxCell id="xZo1qOLbd3uWLsVHMOr4-1" value="" style="ellipse;html=1;shape=startState;fillColor=#000000;strokeColor=#ff0000;" parent="1" vertex="1">
          <mxGeometry x="110" y="60" width="30" height="30" as="geometry" />
        </mxCell>
        <mxCell id="xZo1qOLbd3uWLsVHMOr4-2" value="" style="edgeStyle=orthogonalEdgeStyle;html=1;verticalAlign=bottom;endArrow=open;endSize=8;strokeColor=#ff0000;rounded=0;" parent="1" edge="1">
          <mxGeometry relative="1" as="geometry">
            <mxPoint x="200" y="74.52" as="targetPoint" />
            <mxPoint x="140" y="74.51999999999994" as="sourcePoint" />
          </mxGeometry>
        </mxCell>
        <mxCell id="xZo1qOLbd3uWLsVHMOr4-5" value="Hungry" style="swimlane;fontStyle=1;align=center;verticalAlign=middle;childLayout=stackLayout;horizontal=1;startSize=30;horizontalStack=0;resizeParent=0;resizeLast=1;container=0;fontColor=#000000;collapsible=0;rounded=1;arcSize=30;strokeColor=#ff0000;fillColor=#ffffc0;swimlaneFillColor=#ffffc0;dropTarget=0;" parent="1" vertex="1">
          <mxGeometry x="210" y="50" width="160" height="60" as="geometry" />
        </mxCell>
        <mxCell id="xZo1qOLbd3uWLsVHMOr4-6" value="self.state = &quot;hungry&quot;" style="text;html=1;strokeColor=none;fillColor=none;align=center;verticalAlign=middle;spacingLeft=4;spacingRight=4;whiteSpace=wrap;overflow=hidden;rotatable=0;fontColor=#000000;" parent="xZo1qOLbd3uWLsVHMOr4-5" vertex="1">
          <mxGeometry y="30" width="160" height="30" as="geometry" />
        </mxCell>
        <mxCell id="xZo1qOLbd3uWLsVHMOr4-7" value="" style="edgeStyle=orthogonalEdgeStyle;html=1;verticalAlign=bottom;endArrow=open;endSize=8;strokeColor=#ff0000;rounded=0;" parent="1" edge="1">
          <mxGeometry relative="1" as="geometry">
            <mxPoint x="460" y="80" as="targetPoint" />
            <mxPoint x="370" y="80" as="sourcePoint" />
          </mxGeometry>
        </mxCell>
        <mxCell id="xZo1qOLbd3uWLsVHMOr4-9" value="Hunt" style="swimlane;fontStyle=1;align=center;verticalAlign=middle;childLayout=stackLayout;horizontal=1;startSize=30;horizontalStack=0;resizeParent=0;resizeLast=1;container=0;fontColor=#000000;collapsible=0;rounded=1;arcSize=30;strokeColor=#ff0000;fillColor=#ffffc0;swimlaneFillColor=#ffffc0;dropTarget=0;" parent="1" vertex="1">
          <mxGeometry x="470" y="50" width="160" height="60" as="geometry" />
        </mxCell>
        <mxCell id="xZo1qOLbd3uWLsVHMOr4-10" value="&lt;div&gt;self.state = &quot;hunting&quot;&lt;/div&gt;&lt;div&gt;self.times_hunted +=1&lt;br&gt;&lt;/div&gt;" style="text;html=1;strokeColor=none;fillColor=none;align=center;verticalAlign=middle;spacingLeft=4;spacingRight=4;whiteSpace=wrap;overflow=hidden;rotatable=0;fontColor=#000000;" parent="xZo1qOLbd3uWLsVHMOr4-9" vertex="1">
          <mxGeometry y="30" width="160" height="30" as="geometry" />
        </mxCell>
        <mxCell id="xZo1qOLbd3uWLsVHMOr4-12" value="Subtitle" style="text;html=1;strokeColor=none;fillColor=none;align=center;verticalAlign=middle;spacingLeft=4;spacingRight=4;whiteSpace=wrap;overflow=hidden;rotatable=0;fontColor=#000000;" parent="xZo1qOLbd3uWLsVHMOr4-9" vertex="1">
          <mxGeometry y="60" width="160" as="geometry" />
        </mxCell>
        <mxCell id="xZo1qOLbd3uWLsVHMOr4-11" value="" style="edgeStyle=orthogonalEdgeStyle;html=1;verticalAlign=bottom;endArrow=open;endSize=8;strokeColor=#ff0000;rounded=0;" parent="1" edge="1">
          <mxGeometry relative="1" as="geometry">
            <mxPoint x="550" y="180" as="targetPoint" />
            <mxPoint x="550" y="111" as="sourcePoint" />
          </mxGeometry>
        </mxCell>
        <mxCell id="xZo1qOLbd3uWLsVHMOr4-13" value="Rest" style="swimlane;fontStyle=1;align=center;verticalAlign=middle;childLayout=stackLayout;horizontal=1;startSize=30;horizontalStack=0;resizeParent=0;resizeLast=1;container=0;fontColor=#000000;collapsible=0;rounded=1;arcSize=30;strokeColor=#ff0000;fillColor=#ffffc0;swimlaneFillColor=#ffffc0;dropTarget=0;" parent="1" vertex="1">
          <mxGeometry x="470" y="190" width="160" height="60" as="geometry" />
        </mxCell>
        <mxCell id="xZo1qOLbd3uWLsVHMOr4-14" value="self.state = &quot;resting&quot;" style="text;html=1;strokeColor=none;fillColor=none;align=center;verticalAlign=middle;spacingLeft=4;spacingRight=4;whiteSpace=wrap;overflow=hidden;rotatable=0;fontColor=#000000;" parent="xZo1qOLbd3uWLsVHMOr4-13" vertex="1">
          <mxGeometry y="30" width="160" height="30" as="geometry" />
        </mxCell>
        <mxCell id="xZo1qOLbd3uWLsVHMOr4-15" value="" style="edgeStyle=orthogonalEdgeStyle;html=1;verticalAlign=bottom;endArrow=open;endSize=8;strokeColor=#ff0000;rounded=0;" parent="1" edge="1">
          <mxGeometry relative="1" as="geometry">
            <mxPoint x="550" y="300" as="targetPoint" />
            <mxPoint x="550" y="250" as="sourcePoint" />
          </mxGeometry>
        </mxCell>
        <mxCell id="xZo1qOLbd3uWLsVHMOr4-17" value="Search for new prey" style="swimlane;fontStyle=1;align=center;verticalAlign=middle;childLayout=stackLayout;horizontal=1;startSize=30;horizontalStack=0;resizeParent=0;resizeLast=1;container=0;fontColor=#000000;collapsible=0;rounded=1;arcSize=30;strokeColor=#ff0000;fillColor=#ffffc0;swimlaneFillColor=#ffffc0;dropTarget=0;" parent="1" vertex="1">
          <mxGeometry x="210" y="170" width="160" height="90" as="geometry" />
        </mxCell>
        <mxCell id="xZo1qOLbd3uWLsVHMOr4-18" value="&lt;div align=&quot;left&quot;&gt;if self.times_hunted_today &amp;lt; 3:&lt;/div&gt;&lt;div align=&quot;left&quot;&gt;self.state = &quot;searching for prey&quot;&lt;/div&gt;" style="text;html=1;strokeColor=none;fillColor=none;align=center;verticalAlign=middle;spacingLeft=4;spacingRight=4;whiteSpace=wrap;overflow=hidden;rotatable=0;fontColor=#000000;" parent="xZo1qOLbd3uWLsVHMOr4-17" vertex="1">
          <mxGeometry y="30" width="160" height="60" as="geometry" />
        </mxCell>
        <mxCell id="xZo1qOLbd3uWLsVHMOr4-19" value="" style="edgeStyle=orthogonalEdgeStyle;html=1;verticalAlign=bottom;endArrow=open;endSize=8;strokeColor=#ff0000;rounded=0;exitX=0.341;exitY=0;exitDx=0;exitDy=0;exitPerimeter=0;" parent="1" source="xZo1qOLbd3uWLsVHMOr4-12" edge="1">
          <mxGeometry relative="1" as="geometry">
            <mxPoint x="380" y="170" as="targetPoint" />
            <mxPoint x="510" y="120" as="sourcePoint" />
          </mxGeometry>
        </mxCell>
        <mxCell id="xZo1qOLbd3uWLsVHMOr4-20" value="" style="edgeStyle=orthogonalEdgeStyle;html=1;verticalAlign=bottom;endArrow=open;endSize=8;strokeColor=#ff0000;rounded=0;entryX=0.496;entryY=1.134;entryDx=0;entryDy=0;entryPerimeter=0;" parent="1" edge="1">
          <mxGeometry relative="1" as="geometry">
            <mxPoint x="290.1" y="124.01999999999998" as="targetPoint" />
            <mxPoint x="289.74" y="170" as="sourcePoint" />
          </mxGeometry>
        </mxCell>
        <mxCell id="xZo1qOLbd3uWLsVHMOr4-21" value="" style="ellipse;html=1;shape=endState;fillColor=#000000;strokeColor=#ff0000;" parent="1" vertex="1">
          <mxGeometry x="275" y="310" width="30" height="30" as="geometry" />
        </mxCell>
        <mxCell id="xZo1qOLbd3uWLsVHMOr4-22" value="" style="edgeStyle=orthogonalEdgeStyle;html=1;verticalAlign=bottom;endArrow=open;endSize=8;strokeColor=#ff0000;rounded=0;entryX=0.504;entryY=-0.093;entryDx=0;entryDy=0;entryPerimeter=0;" parent="1" target="xZo1qOLbd3uWLsVHMOr4-21" edge="1">
          <mxGeometry relative="1" as="geometry">
            <mxPoint x="289.78" y="279.95" as="targetPoint" />
            <mxPoint x="290" y="260" as="sourcePoint" />
          </mxGeometry>
        </mxCell>
        <mxCell id="xZo1qOLbd3uWLsVHMOr4-23" value="" style="ellipse;html=1;shape=endState;fillColor=#000000;strokeColor=#ff0000;" parent="1" vertex="1">
          <mxGeometry x="535" y="310" width="30" height="30" as="geometry" />
        </mxCell>
        <mxCell id="xZo1qOLbd3uWLsVHMOr4-24" value="self.species dies of hunger" style="text;html=1;align=center;verticalAlign=middle;whiteSpace=wrap;rounded=0;" parent="1" vertex="1">
          <mxGeometry x="260" y="350" width="60" height="30" as="geometry" />
        </mxCell>
        <mxCell id="xZo1qOLbd3uWLsVHMOr4-25" value="self.species survives another day" style="text;html=1;align=center;verticalAlign=middle;whiteSpace=wrap;rounded=0;" parent="1" vertex="1">
          <mxGeometry x="520" y="360" width="60" height="30" as="geometry" />
        </mxCell>
        <mxCell id="xZo1qOLbd3uWLsVHMOr4-26" value="Mammal&lt;br&gt;self.is_predator = True" style="text;html=1;align=center;verticalAlign=middle;whiteSpace=wrap;rounded=0;" parent="1" vertex="1">
          <mxGeometry x="70" y="20" width="125" height="30" as="geometry" />
        </mxCell>
      </root>
    </mxGraphModel>
  </diagram>
</mxfile>
